<?xml version="1.0" encoding="UTF-8" standalone="no"?>
<!-- Created with Inkscape (http://www.inkscape.org/) -->
<svg id="svg2" xmlns:rdf="http://www.w3.org/1999/02/22-rdf-syntax-ns#" xmlns="http://www.w3.org/2000/svg" xml:space="preserve" height="85.623" viewBox="0 0 92.036251 85.622985" width="92.035" version="1.1" xmlns:cc="http://creativecommons.org/ns#" xmlns:dc="http://purl.org/dc/elements/1.1/"><metadata id="metadata8"><rdf:RDF><cc:Work rdf:about=""><dc:format>image/svg+xml</dc:format><dc:type rdf:resource="http://purl.org/dc/dcmitype/StillImage"/><dc:title/></cc:Work></rdf:RDF></metadata><defs id="defs6"><clipPath id="clipPath16" clipPathUnits="userSpaceOnUse"><path id="path18" d="m0 139.47h393.94v-139.47h-393.94v139.47z"/></clipPath></defs><g id="g10" transform="matrix(1.25 0 0 -1.25 -342.39 116.42)"><g id="g12"><g id="g14" clip-path="url(#clipPath16)"><g id="g42" transform="translate(291.34,79.47)"><path id="path44" fill-opacity=".94118" fill="#ffffff" d="m0 0h-8.717c-5.251-6.027-8.709-14.264-8.709-22.863 0-3.449 0.517-6.777 1.468-9.918h6.331c-1.16 3.088-1.799 6.43-1.799 9.918 0 9.162 4.651 17.689 11.426 22.863"/></g><g id="g46" transform="translate(347.25,61.617)"><path id="path48" fill-opacity=".94118" fill="#ffffff" d="m0 0h-6.004c0.218-1.629 0.341-3.287 0.341-4.973 0-3.447-0.479-6.783-1.356-9.955h6.151c0.751 3.198 1.161 6.528 1.161 9.955 0 1.682-0.105 3.34-0.293 4.973"/></g><g id="g50" transform="translate(304.68,86.178)"><path id="path52" fill-opacity=".94118" fill="#ffffff" d="m0 0c2.276 0 4.119-1.842 4.119-4.119 0-2.274-1.843-4.119-4.119-4.119-2.273 0-4.119 1.845-4.119 4.119 0 2.277 1.846 4.119 4.119 4.119m-2.586-17.479 0.01 0.004c2.866 3.426 7.169 5.605 11.986 5.605 0.324 0 1.038-0.013 1.038-0.013-0.102 2.43 0.303 3.858 0.576 5.095 0.19 0.851 0.271 1.599 0.271 2.571 0 6.164-5.055 11.178-11.295 11.178-6.027 0-11.109-4.943-11.109-11.178 0-7.615 6.548-9.665 8.523-13.262"/></g><g id="g54" transform="translate(338.75,70.168)"><path id="path56" fill-opacity=".94118" fill="#ffffff" d="m0 0c-0.902-2.04-3.29-2.959-5.329-2.054-0.708 0.315-1.283 0.833-1.692 1.431-0.378 0.615-0.619 1.352-0.618 2.124 0.002 2.233 1.814 4.041 4.044 4.035 1.388-0.002 2.609-0.708 3.336-1.768 0.673-1.098 0.821-2.5 0.259-3.768m-19.585-14.521c-1.292-2.915-4.701-4.229-7.615-2.934-1.031 0.457-1.895 1.238-2.483 2.115-0.56 0.892-0.924 1.999-0.922 3.127 0.002 3.189 2.591 5.766 5.778 5.762 2.002-0.002 3.785-1.061 4.818-2.609 0.994-1.572 1.235-3.631 0.424-5.461m16.107 24.657c-2.006 0.002-3.601-0.608-4.931-1.47-1.473-0.956-2.27-2.307-3.176-3.437-1.091-1.355-2.106-2.404-2.984-2.996-3.77-2.533-7.559-2.127-10.092-2.111-6.768 0.041-12.258-5.471-12.27-12.235-0.002-2.429 0.751-4.752 1.968-6.657 1.245-1.886 3.062-3.519 5.282-4.504 6.184-2.741 13.452 0.033 16.166 6.231 1.018 2.322 2.188 5.947 6.034 8.359 0.897 0.563 2.268 1.065 3.951 1.508 1.4 0.37 2.958 0.549 4.429 1.506 1.333 0.864 2.537 2.071 3.353 3.906 1.207 2.722 0.884 5.733-0.598 8.072-1.535 2.305-4.153 3.824-7.132 3.828"/></g><g id="g58" transform="translate(327.45,31.062)"><path id="path60" fill-opacity=".94118" fill="#ffffff" d="m0 0c-3.176 0-5.75 2.574-5.75 5.75s2.574 5.75 5.75 5.75 5.75-2.574 5.75-5.75-2.574-5.75-5.75-5.75m5.797 16.445c-2.483 1.395-5.83 3.41-8.185 5.744 0 0-0.745 1.532-0.817 1.375l0.442-0.853c-2.034-3.912-7.035-6.563-11.75-6.563-0.119 0 0.938-0.746 0.938-0.746 0.917-2.734 1.122-6.556 1.439-10.295 0.017-0.31 0.113-1.138 0.113-1.138 0.861-5.875 5.908-10.391 12.023-10.391 6.719 0 12.166 5.447 12.166 12.166 0 4.621-2.576 8.641-6.369 10.701"/></g><g id="g62" transform="translate(297.6,43.438)"><path id="path64" fill-opacity=".94118" fill="#ffffff" d="m0 0c-1.317 2.229-1.437 5.094 0.028 7.553 0.63 1.054 1.457 1.914 2.424 2.531l-4.334 2.502-2.705 1.562-3.593 2.075-3.797-6.571 3.642-2.765c-0.438-2.131-0.397-4.303 0.074-6.379l-3.722-2.815 1.984-3.435 0.001-0.002 1.984-3.438 4.299 1.817c1.562-1.446 3.422-2.567 5.486-3.252l0.576-4.537 7.587 0.002v4.148 3.125 5.004c-1.018-0.529-2.174-0.834-3.403-0.834-2.772 0-5.26 1.455-6.531 3.709"/></g></g></g></g></svg>
