<?xml version="1.0" encoding="utf-8"?>
<!-- Generator: Adobe Illustrator 21.1.0, SVG Export Plug-In . SVG Version: 6.00 Build 0)  -->
<svg version="1.1" id="Calque_1" xmlns="http://www.w3.org/2000/svg" xmlns:xlink="http://www.w3.org/1999/xlink" x="0px" y="0px"
	 viewBox="0 0 18 18" style="enable-background:new 0 0 18 18;" xml:space="preserve">
<style type="text/css">
	.st0{fill:#52A347;}
</style>
<g>
	<path class="st0" d="M9,2c3.9,0,7,3.1,7,7s-3.1,7-7,7s-7-3.1-7-7S5.1,2,9,2 M9,0C4,0,0,4,0,9s4,9,9,9s9-4,9-9S14,0,9,0L9,0z"/>
</g>
<g>
	<path class="st0" d="M13,6.5c0,1.6-1.2,2.8-3,3.1l-0.1,1.4H8L7.9,8.3h0.4c1.7,0,2.6-0.7,2.6-1.7c0-0.9-0.8-1.6-1.9-1.6
		c-1.1,0-1.9,0.6-1.9,1.6H5c0-1.9,1.7-3.3,4.1-3.3C11.3,3.4,13,4.7,13,6.5z M10.4,13.3c0,0.8-0.6,1.3-1.4,1.3
		c-0.8,0-1.4-0.6-1.4-1.3c0-0.8,0.6-1.3,1.4-1.3C9.8,11.9,10.4,12.5,10.4,13.3z"/>
</g>
</svg>
