<?xml version="1.0" encoding="UTF-8" standalone="no"?>
<!-- Created with Inkscape (http://www.inkscape.org/) -->

<svg
   xmlns:dc="http://purl.org/dc/elements/1.1/"
   xmlns:cc="http://creativecommons.org/ns#"
   xmlns:rdf="http://www.w3.org/1999/02/22-rdf-syntax-ns#"
   xmlns:svg="http://www.w3.org/2000/svg"
   xmlns="http://www.w3.org/2000/svg"
   xmlns:sodipodi="http://sodipodi.sourceforge.net/DTD/sodipodi-0.dtd"
   xmlns:inkscape="http://www.inkscape.org/namespaces/inkscape"
   id="svg2"
   version="1.1"
   inkscape:version="0.91 r13725"
   xml:space="preserve"
   width="259.39963"
   height="110.35562"
   viewBox="0 0 259.39963 110.35562"
   sodipodi:docname="vortex_studio_logo.svg"><metadata
     id="metadata8"><rdf:RDF><cc:Work
         rdf:about=""><dc:format>image/svg+xml</dc:format><dc:type
           rdf:resource="http://purl.org/dc/dcmitype/StillImage" /><dc:title></dc:title></cc:Work></rdf:RDF></metadata><defs
     id="defs6"><clipPath
       clipPathUnits="userSpaceOnUse"
       id="clipPath16"><path
         d="m 0,160.292 278.968,0 L 278.968,0 0,0 0,160.292 Z"
         id="path18"
         inkscape:connector-curvature="0" /></clipPath></defs><sodipodi:namedview
     pagecolor="#ffffff"
     bordercolor="#666666"
     borderopacity="1"
     objecttolerance="10"
     gridtolerance="10"
     guidetolerance="10"
     inkscape:pageopacity="0"
     inkscape:pageshadow="2"
     inkscape:window-width="1234"
     inkscape:window-height="785"
     id="namedview4"
     showgrid="false"
     fit-margin-top="0"
     fit-margin-left="0"
     fit-margin-right="0"
     fit-margin-bottom="0"
     inkscape:zoom="1.1384819"
     inkscape:cx="129.35075"
     inkscape:cy="55.177747"
     inkscape:window-x="0"
     inkscape:window-y="30"
     inkscape:window-maximized="0"
     inkscape:current-layer="g10" /><g
     id="g10"
     inkscape:groupmode="layer"
     inkscape:label="vortex_studio_logo_rvb"
     transform="matrix(1.25,0,0,-1.25,-45.00425,155.36037)"><g
       id="g12"><g
         id="g14"
         clip-path="url(#clipPath16)"><g
           id="g20"
           transform="translate(156.2617,48.8174)"><path
             d="m 0,0 -4.283,0 c -0.11,1.404 -1.297,2.376 -3.026,2.376 -1.582,0 -2.698,-0.792 -2.698,-1.943 0,-1.405 1.763,-1.872 4.282,-2.412 2.592,-0.541 6.264,-1.62 6.264,-5.291 0,-3.276 -3.168,-5.543 -7.666,-5.543 -4.608,0 -7.848,2.375 -7.848,5.758 l 4.536,0 c 0.107,-1.439 1.403,-2.412 3.275,-2.412 1.728,0 2.951,0.865 2.951,2.052 0,1.548 -2.158,1.908 -4.714,2.484 -2.628,0.612 -5.688,1.871 -5.688,5.148 0,3.203 2.951,5.434 7.271,5.434 C -3.024,5.651 0,3.313 0,0"
             style="fill:#53aa55;fill-opacity:1;fill-rule:nonzero;stroke:none"
             id="path22"
             inkscape:connector-curvature="0" /></g><g
           id="g24"
           transform="translate(170.5175,50.2217)"><path
             d="m 0,0 -3.959,0 0,-13.894 -4.717,0 0,13.894 -3.31,0 0,3.888 3.31,0 0,4.643 4.717,0 0,-4.643 L 0,3.888 0,0 Z"
             style="fill:#53aa55;fill-opacity:1;fill-rule:nonzero;stroke:none"
             id="path26"
             inkscape:connector-curvature="0" /></g><g
           id="g28"
           transform="translate(190.2089,43.7061)"><path
             d="m 0,0 c 0,-4.535 -3.42,-7.702 -8.352,-7.702 -4.966,0 -8.423,3.167 -8.423,7.702 l 0,10.403 4.679,0 0,-10.403 c 0,-2.304 1.477,-3.852 3.709,-3.852 2.231,0 3.707,1.548 3.707,3.852 l 0,10.403 4.68,0 L 0,0 Z"
             style="fill:#53aa55;fill-opacity:1;fill-rule:nonzero;stroke:none"
             id="path30"
             inkscape:connector-curvature="0" /></g><g
           id="g32"
           transform="translate(207.3789,45.2188)"><path
             d="m 0,0 c 0,3.023 -1.979,5.183 -4.75,5.183 -2.772,0 -4.787,-2.16 -4.787,-5.183 0,-2.988 2.015,-5.147 4.787,-5.147 C -1.979,-5.147 0,-2.988 0,0 m 4.717,16.09 0,-24.982 -4.717,0 0,2.88 c -1.44,-2.015 -3.635,-3.203 -6.262,-3.203 -4.679,0 -8.099,3.851 -8.099,9.215 0,5.363 3.42,9.25 8.099,9.25 2.627,0 4.822,-1.224 6.262,-3.203 l 0,10.043 4.717,0 z"
             style="fill:#53aa55;fill-opacity:1;fill-rule:nonzero;stroke:none"
             id="path34"
             inkscape:connector-curvature="0" /></g><path
           d="m 221.168,36.327 -4.715,0 0,17.782 4.715,0 0,-17.782 z m -2.375,20.122 c -1.656,0 -2.844,1.079 -2.844,2.592 0,1.547 1.188,2.627 2.844,2.627 1.691,0 2.879,-1.08 2.879,-2.627 0,-1.513 -1.188,-2.592 -2.879,-2.592"
           style="fill:#53aa55;fill-opacity:1;fill-rule:nonzero;stroke:none"
           id="path36"
           inkscape:connector-curvature="0" /><g
           id="g38"
           transform="translate(229.1601,45.2188)"><path
             d="m 0,0 c 0,-2.988 1.98,-5.147 4.752,-5.147 2.807,0 4.787,2.159 4.787,5.147 0,3.023 -1.98,5.183 -4.787,5.183 C 1.98,5.183 0,3.023 0,0 m 14.363,0 c 0,-5.364 -4.033,-9.215 -9.576,-9.215 -5.578,0 -9.611,3.851 -9.611,9.215 0,5.363 4.033,9.25 9.611,9.25 5.543,0 9.576,-3.887 9.576,-9.25"
             style="fill:#53aa55;fill-opacity:1;fill-rule:nonzero;stroke:none"
             id="path40"
             inkscape:connector-curvature="0" /></g><g
           id="g42"
           transform="translate(73.2324,115.0181)"><path
             d="m 0,0 -14.161,-35.915 -8.906,0 L -37.229,0 -29.272,0 -18.614,-28.542 -7.956,0 0,0 Z"
             style="fill:#58595b;fill-opacity:1;fill-rule:nonzero;stroke:none"
             id="path44"
             inkscape:connector-curvature="0" /></g><g
           id="g46"
           transform="translate(82.2119,97.0606)"><path
             d="m 0,0 c 0,-7.081 4.818,-12.118 11.461,-12.118 6.716,0 11.533,5.037 11.533,12.118 0,7.008 -4.817,12.118 -11.533,12.118 C 4.818,12.118 0,7.008 0,0 m 30.659,0 c 0,-10.804 -8.029,-18.614 -19.125,-18.614 -11.096,0 -19.198,7.81 -19.198,18.614 0,10.804 8.102,18.615 19.198,18.615 11.096,0 19.125,-7.811 19.125,-18.615"
             style="fill:#58595b;fill-opacity:1;fill-rule:nonzero;stroke:none"
             id="path48"
             inkscape:connector-curvature="0" /></g><g
           id="g50"
           transform="translate(139.4423,115.9673)"><path
             d="m 0,0 0,-7.373 c -8.321,0 -13.504,-4.38 -13.504,-11.753 l 0,-17.739 -7.446,0 0,35.916 7.446,0 0,-8.395 C -11.096,-3.431 -6.35,0 0,0"
             style="fill:#58595b;fill-opacity:1;fill-rule:nonzero;stroke:none"
             id="path52"
             inkscape:connector-curvature="0" /></g><g
           id="g54"
           transform="translate(165.5761,108.7403)"><path
             d="m 0,0 -8.102,0 0,-29.638 -7.52,0 0,29.638 -6.643,0 0,6.278 6.643,0 0,9.27 7.52,0 0,-9.27 L 0,6.278 0,0 Z"
             style="fill:#58595b;fill-opacity:1;fill-rule:nonzero;stroke:none"
             id="path56"
             inkscape:connector-curvature="0" /></g><g
           id="g58"
           transform="translate(175.0654,100.4917)"><path
             d="M 0,0 23.579,0 C 22.338,5.329 17.593,9.052 11.68,9.052 5.84,9.052 1.314,5.401 0,0 m 30.514,-5.767 -30.733,0 c 0.95,-5.986 5.695,-10.147 11.899,-10.147 5.11,0 9.49,3.212 10.877,7.519 l 7.591,0 c -2.043,-7.957 -9.709,-13.65 -18.541,-13.65 -11.095,0 -19.199,7.81 -19.199,18.614 0,10.804 8.104,18.615 19.199,18.615 11.096,0 19.053,-7.811 19.125,-18.688 0,-0.73 -0.072,-1.533 -0.218,-2.263"
             style="fill:#58595b;fill-opacity:1;fill-rule:nonzero;stroke:none"
             id="path60"
             inkscape:connector-curvature="0" /></g><g
           id="g62"
           transform="translate(242.6836,79.1074)"><path
             d="m 0,0 -8.085,0 -14.005,18.156 9.397,0 L 0,0 Z"
             style="fill:#58595b;fill-opacity:1;fill-rule:nonzero;stroke:none"
             id="path64"
             inkscape:connector-curvature="0" /></g><g
           id="g66"
           transform="translate(242.9638,115.1114)"><path
             d="m 0,0 -9.788,0 -12.584,-17.852 9.396,0 L 0,0 Z"
             style="fill:#53aa55;fill-opacity:1;fill-rule:nonzero;stroke:none"
             id="path68"
             inkscape:connector-curvature="0" /></g><g
           id="g70"
           transform="translate(207.4785,115.1114)"><path
             d="m 0,0 8.367,0 14.006,-17.852 -9.394,0 L 0,0 Z"
             style="fill:#58595b;fill-opacity:1;fill-rule:nonzero;stroke:none"
             id="path72"
             inkscape:connector-curvature="0" /></g><g
           id="g74"
           transform="translate(206.8545,79.1074)"><path
             d="m 0,0 9.894,0 13.102,18.156 -9.397,0 L 0,0 Z"
             style="fill:#53aa55;fill-opacity:1;fill-rule:nonzero;stroke:none"
             id="path76"
             inkscape:connector-curvature="0" /></g></g></g></g></svg>